/* XPM */
static char * libft_xpm[] = {
"32 32 9 1",
" 	c None",
".	c #C40424",
"+	c #FF7F27",
"@	c #880015",
"#	c #FFFFFF",
"$	c #3F48CC",
"%	c #F7AB79",
"&	c #ED1C24",
"*	c #7F86E3",
"                                ",
"                                ",
"          ..........            ",
"        .............           ",
"       ...............          ",
"       ...............          ",
"       ...............          ",
"       ...............          ",
"    +   ..@@@@@@@@@... +++      ",
"    ++ @@@@@@@+++@@@@ ++++      ",
"    +++@@@++++++++++@.+++       ",
"    +++@++###+++ ##+@@+++       ",
"     ++@++##$++++$#++@++        ",
"     ++@++#$$++++$#+++++        ",
"      ++++++++++++++++++        ",
"      +++++++....+++++++        ",
"      +++++%%%%%%%%+++++        ",
"      +++++%%%%%%%%%++++        ",
"      +++++########+++++        ",
"       ++++++#####+++++         ",
"       ++++++++++++++++         ",
"        ++++++++++++++          ",
"       ..++++++++++.            ",
"      ...&&++++++++&..          ",
"      .&&&&&&&&&&&&&&..         ",
"     .&&&&&&&&&&&&&.&&&.        ",
"     .&&...&&&&&&&&.&&&..       ",
"     ...  .&&&&&&&.......       ",
"          .........             ",
"         $$$$$$$$$$$            ",
"         $$$$$**$$$$$           ",
"         $$$$$***$$$$           "};
