/* XPM */
static char * Adibou_droite_xpm[] = {
"32 32 9 1",
" 	c None",
".	c #43A150",
"+	c #3F964B",
"@	c #C40424",
"#	c #880015",
"$	c #FF7F27",
"%	c #FFFFFF",
"&	c #3F48CC",
"*	c #5487FF",
"................++++++++++......",
"..........@@@@@@@@@@@+++++......",
".........@@@@@@@@@@@@@@@@+......",
"........@@@#########@@@@@@@@@...",
"........#############@@@@@@@@@@.",
".......##############@@@@$......",
"......$###############@@@$......",
"......$###############@$$+......",
"......$$$#############%%++......",
".......$$$$########$$$%&++......",
".......$$$$$$$$$$$$$$$$$++......",
".......$$$$$$$$$$$$$$$$$++......",
".......$$$$$$$$$$$$$%%%%++......",
"........$$$$$$$$$$$$$$%%++......",
"........$$$$$$$$$$$$$$$#++......",
"........#$$$$$$$$$$$$$##++......",
"........##$$$$$$$$$$$###++......",
".......#################++......",
".......##################+......",
"......####################......",
"......$##################$......",
".....$$#################$$......",
".........&&&&&&&&&&&&&++++......",
".........&&&&&&&&&&&&&++++......",
".........&&&&&&&&&&&&&&+++......",
"........&&&&&&&&&&&&&&&+++......",
"........&&&&&&&&&&&&&&&&........",
"........&&&&&&&&&&&&&&&&........",
"........&&&&&&&&&&&&&&&&........",
".......&&&&&&&&*&&&&&&&&........",
".......&&&&&&&***&&&&&&&&.......",
".......&&&&&&&***&&&&&&&&&......"};
