/* XPM */
static char * ADIBOU_Vert_xpm[] = {
"32 32 12 1",
" 	c #3F964B",
".	c #43A150",
"+	c #339C33",
"@	c #C40424",
"#	c #FF7F27",
"$	c #3E9C4B",
"%	c #880015",
"&	c #FFFFFF",
"*	c #3F48CC",
"=	c #F7AB79",
"-	c #ED1C24",
";	c #7F86E3",
" .. .............+............  ",
" .  ............++............. ",
"..........@@@@@@@@@@............",
"...... .@@@@@@@@@@@@@...........",
"...... @@@@@@@@@@@@@@@..........",
"...... @@@@@@@@@@@@@@@....++....",
"...... @@@@@@@@@@@@@@@...++.....",
".......@@@@@@@@@@@@@@@. ........",
"....#$..@@%%%%%%%%%@@@.###......",
"...+##$%%%%%%%###%%%%.####......",
"...+###%%%##########%@###.. ....",
"...+###%##&&&###.&&#%%###.. ....",
"...+.##%##&&*####*&##%##........",
".....##%##&**####*&#####........",
"......##################........",
"....  #######@@@@#######.....  .",
".... .#####========#####..... ..",
"......#####=========####..... ..",
"......#####&&&&&&&&#####........",
".......######&&&&&#####. .......",
".......################. .......",
"....... ##############.. ...  ..",
".......@@##########@ ........   ",
"......@@@--########-@@......... ",
"  ...+@--------------@@.........",
". ...@-------------@---@.$$.....",
".....@--@@@--------@---@@.$.....",
"....$@@@..@-------@@@@@@@.$.....",
"....$.$...@@@@@@@@@..$....$.....",
" .....$..***********+....++.....",
" .....$..*****;;*****....+......",
" .. .....*****;;;****..........."};
