/* XPM */
static char * Adibou_dos_xpm[] = {
"32 32 8 1",
" 	c None",
".	c #43A150",
"+	c #3F964B",
"@	c #C40424",
"#	c #880015",
"$	c #FF7F27",
"%	c #3F48CC",
"&	c #5487FF",
"................++++++++++......",
"..........@@@@@@@@@@@+++++......",
".........@@@@@@@@@@@@@++++......",
"........@@@#########@@@+++......",
"........###############+++......",
".......#################$$......",
"......$#################$$......",
"......$################$$+......",
"......$$$#############$$++......",
".......$$$$########$$$$$++......",
".......$$$$$$$$$$$$$$$$$++......",
".......$$$$$$$$$$$$$$$$$++......",
".......$$$$$$$$$$$$$$$$$++......",
"........$$$$$$$$$$$$$$$$++......",
"........$$$$$$$$$$$$$$$$++......",
"........#$$$$$$$$$$$$$##++......",
"........##$$$$$$$$$$$###++......",
".......#################++......",
".......####@@@@@@@@@#####+......",
"......####@@@@@@@@@@@#####......",
"......$##@@@@@@@@@@@@@###$......",
".....$$##@@@@@@@@@@@@@##$$......",
".........%%%%%%%%%%%%%++++......",
".........%%%%%%%%%%%%%++++......",
".........%%%%%%%%%%%%%%+++......",
"........%%%%%%%%%%%%%%%+++......",
"........%%%%%%%%%%%%%%%%........",
"........%%%%%%%%%%%%%%%%........",
"........%%%%%%%%%%%%%%%%........",
".......%%%%%%%%&%%%%%%%%........",
".......%%%%%%%&&&%%%%%%%%.......",
".......%%%%%%%&&&%%%%%%%%%......"};
