/* XPM */
static char * Ananas32x32_xpm[] = {
"32 32 341 2",
"  	c #3F964B",
". 	c #43A150",
"+ 	c #339C33",
"@ 	c #FFFFFF",
"# 	c #DAD3D4",
"$ 	c #EAE5E6",
"% 	c #B5A4A6",
"& 	c #B3A2A4",
"* 	c #E9E4E5",
"= 	c #65694D",
"- 	c #AF9B9E",
"; 	c #DBD3D4",
"> 	c #886D6A",
", 	c #D6CECF",
"' 	c #677554",
") 	c #62865E",
"! 	c #F0EDED",
"~ 	c #9E8889",
"{ 	c #51D687",
"] 	c #B19EA1",
"^ 	c #D7CFD0",
"/ 	c #828F63",
"( 	c #82D287",
"_ 	c #C3B6B8",
": 	c #717056",
"< 	c #4BE58D",
"[ 	c #80655D",
"} 	c #72A76D",
"| 	c #38D585",
"1 	c #89656A",
"2 	c #7B9164",
"3 	c #60FB9D",
"4 	c #50A76B",
"5 	c #E5DFE0",
"6 	c #A18A8D",
"7 	c #18EB8B",
"8 	c #61F89B",
"9 	c #44FD9D",
"0 	c #1DF396",
"a 	c #54CB80",
"b 	c #36FC9C",
"c 	c #03FC9C",
"d 	c #7E7167",
"e 	c #F9F7F7",
"f 	c #D4CBCC",
"g 	c #E3DEDE",
"h 	c #3E9C4B",
"i 	c #D0C6C8",
"j 	c #41BB6B",
"k 	c #00FF9D",
"l 	c #29E78F",
"m 	c #845D63",
"n 	c #837768",
"o 	c #649461",
"p 	c #B4A3A5",
"q 	c #F1ECED",
"r 	c #5F6A40",
"s 	c #06EA85",
"t 	c #00FC9A",
"u 	c #1BF99A",
"v 	c #62BF7A",
"w 	c #4FED94",
"x 	c #747661",
"y 	c #F4F1F1",
"z 	c #F7F5F5",
"A 	c #CABEC0",
"B 	c #987778",
"C 	c #85342B",
"D 	c #9F4326",
"E 	c #84412D",
"F 	c #548345",
"G 	c #26D371",
"H 	c #00F995",
"I 	c #598C5C",
"J 	c #DFD8D9",
"K 	c #FEFDFD",
"L 	c #CABFC1",
"M 	c #875347",
"N 	c #D3A82B",
"O 	c #F7D12E",
"P 	c #C37E25",
"Q 	c #FE9438",
"R 	c #FF9E40",
"S 	c #CF5E1D",
"T 	c #83502D",
"U 	c #40AD58",
"V 	c #00F895",
"W 	c #6CB273",
"X 	c #937A7A",
"Y 	c #A28A8E",
"Z 	c #CCC1C3",
"` 	c #FAF9F9",
" .	c #A58E91",
"..	c #B04B22",
"+.	c #B65722",
"@.	c #E6A325",
"#.	c #E29F25",
"$.	c #C57727",
"%.	c #C34F1A",
"&.	c #D45A16",
"*.	c #D15514",
"=.	c #B87827",
"-.	c #9B5729",
";.	c #3FB05B",
">.	c #00F48F",
",.	c #00FB98",
"'.	c #00F996",
").	c #38E38A",
"!.	c #548B5C",
"~.	c #C2B4B6",
"{.	c #FCFCFC",
"].	c #A0878B",
"^.	c #B78028",
"/.	c #D3A72B",
"(.	c #D7A729",
"_.	c #BF5520",
":.	c #EC9644",
"<.	c #EF9844",
"[.	c #B97525",
"}.	c #EEC22A",
"|.	c #EBC62E",
"1.	c #B67D28",
"2.	c #E58031",
"3.	c #92492D",
"4.	c #676646",
"5.	c #7D7864",
"6.	c #8F7E7B",
"7.	c #B19FA1",
"8.	c #BCADAF",
"9.	c #C5672C",
"0.	c #CB9126",
"a.	c #FCDB31",
"b.	c #FDD52D",
"c.	c #C47423",
"d.	c #FF9033",
"e.	c #FF9538",
"f.	c #C9601F",
"g.	c #FAC928",
"h.	c #FCDA30",
"i.	c #DFAB26",
"j.	c #E88535",
"k.	c #DD853B",
"l.	c #BBACAE",
"m.	c #E8E3E4",
"n.	c #A64728",
"o.	c #FD9236",
"p.	c #C36420",
"q.	c #FFB322",
"r.	c #F7AC23",
"s.	c #C67A26",
"t.	c #DC5C11",
"u.	c #DE5E11",
"v.	c #C94F18",
"w.	c #D18626",
"x.	c #EB9E24",
"y.	c #EC9824",
"z.	c #BE511E",
"A.	c #F26F11",
"B.	c #936567",
"C.	c #B55D22",
"D.	c #C37522",
"E.	c #B47626",
"F.	c #BA5624",
"G.	c #D3833E",
"H.	c #D47733",
"I.	c #BB8527",
"J.	c #E6BF2D",
"K.	c #E7BD2B",
"L.	c #B65E23",
"M.	c #E5883A",
"N.	c #DE8A3E",
"O.	c #AB5725",
"P.	c #CD9F2A",
"Q.	c #884F2B",
"R.	c #FBF9FA",
"S.	c #F2EFEF",
"T.	c #86312B",
"U.	c #E4B127",
"V.	c #FBDF33",
"W.	c #F7CB2A",
"X.	c #CD6221",
"Y.	c #FFA548",
"Z.	c #FF9235",
"`.	c #C57E23",
" +	c #FCD82F",
".+	c #C78324",
"++	c #FF9639",
"@+	c #FFA044",
"#+	c #CF5F1D",
"$+	c #F6C729",
"%+	c #A77028",
"&+	c #F5F2F2",
"*+	c #CFC5C7",
"=+	c #D3601B",
"-+	c #CA8B25",
";+	c #FEC826",
">+	c #FFB522",
",+	c #C66621",
"'+	c #F66C05",
")+	c #F06705",
"!+	c #BD541E",
"~+	c #F1A823",
"{+	c #F1AA23",
"]+	c #CC7D26",
"^+	c #E26211",
"/+	c #F26D0A",
"(+	c #E15E0E",
"_+	c #E19625",
":+	c #A56028",
"<+	c #FAF8F8",
"[+	c #C7531B",
"}+	c #A14B26",
"|+	c #CA7224",
"1+	c #C86F29",
"2+	c #A84D26",
"3+	c #C58E26",
"4+	c #CDA22B",
"5+	c #BF8C29",
"6+	c #C7672C",
"7+	c #D9883F",
"8+	c #D0702E",
"9+	c #B37D28",
"0+	c #D0A32A",
"a+	c #C99A29",
"b+	c #A65126",
"c+	c #8E5B5B",
"d+	c #9E868A",
"e+	c #EAC02C",
"f+	c #C99A2A",
"g+	c #F99B41",
"h+	c #FFB759",
"i+	c #E27426",
"j+	c #E6B829",
"k+	c #FBE134",
"l+	c #F4C529",
"m+	c #D26B28",
"n+	c #FFA74A",
"o+	c #FF8828",
"p+	c #C88B25",
"q+	c #FCDD32",
"r+	c #FDD72E",
"s+	c #B76C24",
"t+	c #AD999C",
"u+	c #9C8387",
"v+	c #FBCB28",
"w+	c #E8AA26",
"x+	c #E36F1F",
"y+	c #FD801F",
"z+	c #ED6406",
"A+	c #D08E26",
"B+	c #FFBC23",
"C+	c #FFAD22",
"D+	c #C55C1E",
"E+	c #F46C06",
"F+	c #F26904",
"G+	c #C46A21",
"H+	c #FFB022",
"I+	c #B86C28",
"J+	c #DCD4D5",
"K+	c #AB979A",
"L+	c #DE9025",
"M+	c #D07F26",
"N+	c #A44823",
"O+	c #C26B20",
"P+	c #C37822",
"Q+	c #A45626",
"R+	c #CC6D2B",
"S+	c #C96D30",
"T+	c #A35426",
"U+	c #CC9928",
"V+	c #CB9E2A",
"W+	c #A36B28",
"X+	c #CA6F31",
"Y+	c #C05B1F",
"Z+	c #936E6F",
"`+	c #FDFDFD",
" @	c #C9BEBF",
".@	c #BC5825",
"+@	c #F59E46",
"@@	c #C78124",
"#@	c #FCD82E",
"$@	c #C67E24",
"%@	c #FFAC4F",
"&@	c #C75E1F",
"*@	c #FDD42C",
"=@	c #FCDE32",
"-@	c #D29927",
";@	c #F28631",
">@	c #A84124",
",@	c #E2DBDC",
"'@	c #F3F0F0",
")@	c #964438",
"!@	c #FB7E1D",
"~@	c #C66B20",
"{@	c #FEC825",
"]@	c #FFC024",
"^@	c #CB7E25",
"/@	c #FC7B19",
"(@	c #F87311",
"_@	c #CA5018",
":@	c #F6AE23",
"<@	c #FFB622",
"[@	c #E79224",
"}@	c #A23B22",
"|@	c #C4B6B8",
"1@	c #B4441E",
"2@	c #A64423",
"3@	c #CC7625",
"4@	c #CA6F23",
"5@	c #AA5326",
"6@	c #C17C24",
"7@	c #C99027",
"8@	c #BA7F27",
"9@	c #BB5822",
"0@	c #C65C1E",
"a@	c #8A3F29",
"b@	c #FFFEFE",
"c@	c #B09DA0",
"d@	c #8F4E2A",
"e@	c #F2812A",
"f@	c #FFA043",
"g@	c #E06416",
"h@	c #E7B929",
"i@	c #F0B126",
"j@	c #BB4F1F",
"k@	c #964943",
"l@	c #D2C8CA",
"m@	c #FEFEFE",
"n@	c #934C48",
"o@	c #BF4D1C",
"p@	c #C64E19",
"q@	c #C17B27",
"r@	c #C78127",
"s@	c #9B5C41",
"t@	c #B4A3A6",
"u@	c #F2F0F0",
"v@	c #F8F7F7",
"w@	c #D8CFD1",
"x@	c #C6BABC",
"y@	c #C8BDBF",
"z@	c #DDD6D7",
"  . .   . . . . . . . . . . . . . + . . . . . . . . . . . .     ",
"  .     . . . . . . . . . . . . + + . . . . . . . . . . . . .   ",
". . . . . . . . . . . . . . . . . . @ @ . . . . . . . . . . . . ",
". . . . . .   . . . . . . @ @ @ @ @ # $ @ @ @ @ . . . . . . . . ",
". . . . . .     . . . . . @ % & @ * = - @ ; > , @ . . . . . . . ",
". . . . . .     . . . . . @ ' ) ! ~ { ] ^ / ( _ @ . + + . . . . ",
". . . . . .       . . + . @ : < [ } | 1 2 3 4 5 @ @ + . . . . . ",
". . . . . . . . . . . + . @ 6 7 8 9 0 a b c d e f g @ . . . . . ",
". . . . . h . . . . + + . @ i j k k k k k l m n o p @ . . . . . ",
". . . + . h h . . . + @ @ @ q r s t k k k u v w x y @ . . . . . ",
". . . + . . . . . @ @ z A B C D E F G H k k k I J @ @ @ . . . . ",
". . . + . . . . @ K L M N O P Q R S T U V k k W X Y Z @ . . . . ",
". . . + . . . @ `  ...+.@.#.$.%.&.*.=.-.;.>.,.'.).!.~.@ . . . . ",
". . . . . . @ {.].^./.(._.:.<.[.}.|.1.2.3.4.5.6.7.J @ @ . . . . ",
". . . . . . @ 8.9.0.a.b.c.d.e.f.g.h.i.j.k.l.@ @ @ @ . . . . . . ",
". . . .   @ m.n.o.p.q.r.s.t.u.v.w.x.y.z.A.B.@ @ . . . . .     . ",
". . . .   @  .C.D.E.F.G.H.I.J.K.L.M.N.O.P.Q.R.. . . . . .   . . ",
". . . . @ S.T.U.V.W.X.Y.Z.`. +b..+++@+#+$+%+&+@ . . . . .   . . ",
". . . . @ *+=+-+;+>+,+'+)+!+~+{+]+^+/+(+_+:+<+. . . . . . . . . ",
". . . . @ & [+}+|+1+2+3+4+5+6+7+8+9+0+a+b+c+@ .   . . . . . . . ",
". . . . @ d+e+f+g+h+i+j+k+l+m+n+o+p+q+r+s+t+@ .   . . . . . . . ",
". . . . @ u+v+w+x+y+z+A+B+C+D+E+F+G+>+H+I+J+@ .   . . .     . . ",
". . . . @ K+L+M+N+O+P+Q+R+S+T+U+V+W+X+Y+Z+`+. . . . . . .       ",
". . . . @  @.@+@@@#@a.$@%@%@&@*@=@-@;@>@,@@ . . . . . . . . .   ",
"    . . @ '@)@!@~@{@]@^@/@(@_@:@<@[@}@_ @ . . . . . . . . . . . ",
".   . . . @ |@1@2@3@4@5@6@7@8@9@0@a@8.b@@ . . h . h h . . . . . ",
". . . . . @ K c@d@e@f@g@h@h.i@j@k@l@@ @     h h . . h . . . . . ",
". . . . h . @ m@Z n@o@p@q@r@s@t@u@@ . . . h h . . . h . . . . . ",
". . . . h . h @ @ v@w@x@y@z@e @ @ . . . . h . . . . h . . . . . ",
"  . . . . . h . . @ @ @ @ @ @ . . . + + + . . . . + + . . . . . ",
"  . . . . . h . . . . . . h . . . . + . . . . . . + . . . . . . ",
"  . .   . . . . . . . . . h . . . . + . . . . . . . . . . . . . "};
