/* XPM */
static char * door_xpm[] = {
"30 32 190 2",
"  	c None",
". 	c #5AADB1",
"+ 	c #55A4A9",
"@ 	c #54A5A8",
"# 	c #5DAAAE",
"$ 	c #60ABAE",
"% 	c #5DACAE",
"& 	c #5BA1A5",
"* 	c #649293",
"= 	c #727A79",
"- 	c #6F7878",
"; 	c #648C8E",
"> 	c #5E9DA0",
", 	c #62ABAE",
"' 	c #5BADAF",
") 	c #699799",
"! 	c #816F68",
"~ 	c #9B5C42",
"{ 	c #AA562F",
"] 	c #A2522D",
"^ 	c #A15C3F",
"/ 	c #8B685E",
"( 	c #688D91",
"_ 	c #62ACAE",
": 	c #59A3A5",
"< 	c #63A0A3",
"[ 	c #84645B",
"} 	c #B75E35",
"| 	c #C3673E",
"1 	c #C56941",
"2 	c #BC643F",
"3 	c #C56940",
"4 	c #B85E37",
"5 	c #905B4C",
"6 	c #699E9F",
"7 	c #5CA6A8",
"8 	c #57A2A6",
"9 	c #6D888A",
"0 	c #A25736",
"a 	c #C5693F",
"b 	c #C56A42",
"c 	c #BE643E",
"d 	c #C26942",
"e 	c #BF653F",
"f 	c #B96139",
"g 	c #767876",
"h 	c #60A7AA",
"i 	c #5CB3B6",
"j 	c #7D7570",
"k 	c #BB653E",
"l 	c #C1683F",
"m 	c #C06841",
"n 	c #C0653E",
"o 	c #BF663F",
"p 	c #C76B41",
"q 	c #865C4E",
"r 	c #64B2B5",
"s 	c #6EAEAF",
"t 	c #9E6955",
"u 	c #C3693F",
"v 	c #BF673D",
"w 	c #BF673F",
"x 	c #C2693E",
"y 	c #C0673E",
"z 	c #C2683F",
"A 	c #BE663F",
"B 	c #C26B42",
"C 	c #AA6142",
"D 	c #73A6A7",
"E 	c #5B9E9E",
"F 	c #72B1B1",
"G 	c #9F634A",
"H 	c #A85B3B",
"I 	c #A65937",
"J 	c #A65939",
"K 	c #A65838",
"L 	c #A45737",
"M 	c #A45736",
"N 	c #A25636",
"O 	c #A35739",
"P 	c #9A563C",
"Q 	c #729FA1",
"R 	c #589D9E",
"S 	c #61B6BA",
"T 	c #856E64",
"U 	c #BA643F",
"V 	c #B55F3A",
"W 	c #B4603C",
"X 	c #B7613C",
"Y 	c #B9633D",
"Z 	c #B05F3D",
"` 	c #C0663E",
" .	c #95573E",
"..	c #6AB0B1",
"+.	c #53A2A2",
"@.	c #5FA9AC",
"#.	c #796864",
"$.	c #B06E52",
"%.	c #BC643E",
"&.	c #C16741",
"*.	c #C36840",
"=.	c #C66A42",
"-.	c #BA6541",
";.	c #CB6C41",
">.	c #9D583C",
",.	c #6BA4A7",
"'.	c #51A1A2",
").	c #5EB6B8",
"!.	c #7A726C",
"~.	c #B56945",
"{.	c #BE6840",
"].	c #C26842",
"^.	c #C76B42",
"/.	c #BE6742",
"(.	c #CE6D42",
"_.	c #9C583C",
":.	c #6CAAAD",
"<.	c #4FA5A6",
"[.	c #5DB4B6",
"}.	c #79736D",
"|.	c #B46A47",
"1.	c #BC6640",
"2.	c #C06742",
"3.	c #C66941",
"4.	c #BD643E",
"5.	c #C96B42",
"6.	c #C36942",
"7.	c #9C573C",
"8.	c #6AAEB0",
"9.	c #4DA8AA",
"0.	c #5DA8AB",
"a.	c #7A6B67",
"b.	c #B66E50",
"c.	c #B8643E",
"d.	c #BF6642",
"e.	c #C46841",
"f.	c #B8633E",
"g.	c #CA6B42",
"h.	c #C56942",
"i.	c #C86B40",
"j.	c #975438",
"k.	c #6A9BA0",
"l.	c #50A6A9",
"m.	c #61B5B7",
"n.	c #8F766B",
"o.	c #C66D42",
"p.	c #BD673F",
"q.	c #BE6842",
"r.	c #C16842",
"s.	c #B76440",
"t.	c #C36943",
"u.	c #C26A42",
"v.	c #9F5B3E",
"w.	c #70A8A9",
"x.	c #4FACAC",
"y.	c #6FAEAE",
"z.	c #A46C55",
"A.	c #B6623E",
"B.	c #B3613C",
"C.	c #B4623D",
"D.	c #B5613B",
"E.	c #B6633F",
"F.	c #B66440",
"G.	c #B16342",
"H.	c #789794",
"I.	c #52A9AC",
"J.	c #61AAAB",
"K.	c #866C62",
"L.	c #AC5933",
"M.	c #A65532",
"N.	c #A35432",
"O.	c #A75532",
"P.	c #A45331",
"Q.	c #A95733",
"R.	c #A85633",
"S.	c #A85632",
"T.	c #8B4B30",
"U.	c #6A989A",
"V.	c #52ACAF",
"W.	c #59B0B1",
"X.	c #857872",
"Y.	c #CF6E43",
"Z.	c #BF6841",
"`.	c #C56A41",
" +	c #C16740",
".+	c #C86C42",
"++	c #C46A44",
"@+	c #C66B42",
"#+	c #98563A",
"$+	c #6BA3A7",
"                                                            ",
"                                                            ",
"                                                            ",
"                                                            ",
"                                                            ",
"                                                            ",
"            . + @ # $                                       ",
"        % & * = - ; > ,                                     ",
"      ' ) ! ~ { ] ^ / ( _                                   ",
"    : < [ } | 1 2 3 4 5 6 7                                 ",
"    8 9 0 a b 3 c d e f g h                                 ",
"    i j k l m 3 n d o p q r                                 ",
"    s t u v w x y z A B C D E                               ",
"    F G H I J K L M N O P Q R                               ",
"    S T U V W X V Y Z `  ...+.                              ",
"    @.#.$.%.&.*.e =.-.;.>.,.'.                              ",
"    ).!.~.{.].3 c ^./.(._.:.<.                              ",
"    [.}.|.1.2.3.4.5.6.;.7.8.9.                              ",
"    0.a.b.c.d.e.f.g.h.i.j.k.l.                              ",
"    m.n.o.p.q.r.s.=.t.u.v.w.x.                              ",
"    y.z.A.B.C.C.C.D.E.F.G.H.I.                              ",
"    J.K.L.M.N.O.P.Q.R.S.T.U.V.                              ",
"    W.X.Y.3 Z.`. +.+++@+#+$+                                ",
"                                                            ",
"                                                            ",
"                                                            ",
"                                                            ",
"                                                            ",
"                                                            ",
"                                                            ",
"                                                            ",
"                                                            "};
