/* XPM */
static char * gnl_xpm[] = {
"32 32 6 1",
" 	c None",
".	c #3F48CC",
"+	c #00A2E8",
"@	c #5487FF",
"#	c #99D9EA",
"$	c #FFFFFF",
"..+@@@@...####$$#########+++++..",
"..++@......###$..+++++++#+++++..",
".+++@....###......+++++$#+...+..",
"+$$@@....######..+++++$$.....+++",
"+$@#@@@###..++###++++###.....+++",
"########....+++##+++####$$...+++",
"++++##......+++ ########$$....++",
".+++###.....+++#######+++###..##",
"..++#$###$+++++#....+###########",
"#.++#$$##$$++$##+..+++##...$+++#",
"##+#############+++++++#..$$+++#",
"+###.+++++####+++++$$..#....+++#",
"+##....++++++##+$..$$..#....+++#",
"+##...+++++++##....+++.##++.+++#",
"###+++$$+....###....++++#++++++#",
"++##+++$+...+$+#....++++###+++##",
"+++##++++###$$+##...++++#######.",
"#+++#####++++++++#####.##++##...",
"#.. ++##++...++++++#....++++##..",
"#...+++##..... +++##....+++..##.",
"##..+++###....+++###...++.....#+",
"+########....++##++#+++++.$$..#+",
"+++...##.###.##++++##++++.$.++#+",
"+++..# ...######+++++####+++++#+",
"+++++#...++++++##++++++####+++#+",
"#..++#..++++..++...++..#...#####",
"#...+##+++++...+#..+$..#...++++#",
"#...++#++###########$..#.++++++#",
"#####$$###..++#$$#######+++....#",
"++....$#+...++#$++++###++......#",
"+++..+##+++++##+.+++++$++......#",
"+++++++#######+..+++++$$########"};
