/* XPM */
static char * herbe2_xpm[] = {
"32 32 4 1",
" 	c #3F964B",
".	c #43A150",
"+	c #339C33",
"@	c #3E9C4B",
" .. .............+............  ",
" .  ............++............. ",
"................................",
"...... .........................",
"......  .......+... ............",
"......  .......+.++ ......++....",
"......   ..+...+..+ .....++.....",
"...........+......+ ... ........",
".....@....++.. ...+ ............",
"...+.@@...++....................",
"...+......++.........@..... ....",
"...+......++........@@..... ....",
"...+.......@@@.....@@.@.........",
"...........@@.........@@........",
"...........@.... ......@........",
"....   ......... ....++......  .",
".... . . ....... ....+....... ..",
"....... ...++@......++....... ..",
"............+@......+...........",
"....... ................ .......",
"....... ................ .......",
"....... .... ........... ...  ..",
"....... .......      ........   ",
"....................  ......... ",
"  ...++.........................",
". ....+......  ........@.@@.....",
"......+...@..@.   .   @@..@.....",
"....@.....@..@.......@@...@.....",
"....@.@...@..@.......@....@.....",
" .....@...@..@....+++....++.....",
" .....@......@....+......+......",
" .. .........@....+............."};
