/* XPM */
static char * porte_xpm[] = {
"32 32 592 2",
"  	c #3F964B",
". 	c #43A150",
"+ 	c #71AE77",
"@ 	c #90B2B4",
"# 	c #408F91",
"$ 	c #3D8C8F",
"% 	c #3C8D8F",
"& 	c #78A7A5",
"* 	c #85BEBD",
"= 	c #57ABAD",
"- 	c #5CC0C5",
"; 	c #62CCD1",
"> 	c #67AFB4",
", 	c #62C2C7",
"' 	c #5DC9CD",
") 	c #57ADB1",
"! 	c #7BB5B9",
"~ 	c #6CAAA9",
"{ 	c #64C1C3",
"] 	c #62C8CE",
"^ 	c #699FA5",
"/ 	c #69979E",
"( 	c #57A3A6",
"_ 	c #57747A",
": 	c #549599",
"< 	c #659EA4",
"[ 	c #6B99A0",
"} 	c #61BFC4",
"| 	c #63C8C9",
"1 	c #6AABAA",
"2 	c #73B4B1",
"3 	c #5FCCCE",
"4 	c #679CA6",
"5 	c #609497",
"6 	c #568C8D",
"7 	c #4E403F",
"8 	c #6A2F0F",
"9 	c #6B2C09",
"0 	c #682C0A",
"a 	c #533C37",
"b 	c #557D7C",
"c 	c #5C999B",
"d 	c #6A939B",
"e 	c #61C5C9",
"f 	c #67BEC0",
"g 	c #72AFB2",
"h 	c #68A0A7",
"i 	c #67A2A7",
"j 	c #578083",
"k 	c #593B33",
"l 	c #783514",
"m 	c #8A3E1D",
"n 	c #C96D40",
"o 	c #AE5E3C",
"p 	c #AC5E3B",
"q 	c #934523",
"r 	c #8E421E",
"s 	c #5C3122",
"t 	c #527170",
"u 	c #6A9DA6",
"v 	c #69ACAF",
"w 	c #96ACAB",
"x 	c #5FCDD1",
"y 	c #66A3A9",
"z 	c #59676A",
"A 	c #7A3E23",
"B 	c #9E502C",
"C 	c #B8653F",
"D 	c #A95630",
"E 	c #DE7849",
"F 	c #BA6844",
"G 	c #B96743",
"H 	c #B25932",
"I 	c #D47043",
"J 	c #AB5937",
"K 	c #7D3B1D",
"L 	c #595759",
"M 	c #6A959D",
"N 	c #63CECE",
"O 	c #6D9EA0",
"P 	c #339C33",
"Q 	c #64B4B4",
"R 	c #6BA3AA",
"S 	c #528085",
"T 	c #6F3219",
"U 	c #C56639",
"V 	c #CF6F46",
"W 	c #C56A45",
"X 	c #AB5631",
"Y 	c #BE6746",
"Z 	c #BB6744",
"` 	c #B05A32",
" .	c #D37347",
"..	c #D06D48",
"+.	c #BA603C",
"@.	c #8C4421",
"#.	c #4F6D6D",
"$.	c #689EA3",
"%.	c #69BCC0",
"&.	c #9DB7B9",
"*.	c #60BCBD",
"=.	c #64989E",
"-.	c #564643",
";.	c #974B2E",
">.	c #C7673A",
",.	c #CE7046",
"'.	c #C56B46",
").	c #A85330",
"!.	c #E07848",
"~.	c #C96A47",
"{.	c #BD6743",
"].	c #AF5930",
"^.	c #CC7046",
"/.	c #CD6D48",
"(.	c #B35C38",
"_.	c #C5693A",
":.	c #623B2F",
"<.	c #5E8C8F",
"[.	c #62B3B7",
"}.	c #88B8BA",
"|.	c #60B0B2",
"1.	c #65B5BC",
"2.	c #579298",
"3.	c #743D26",
"4.	c #B36141",
"5.	c #C4673B",
"6.	c #CC6E46",
"7.	c #CA6D47",
"8.	c #A45331",
"9.	c #DF7747",
"0.	c #CB6D44",
"a.	c #BD6742",
"b.	c #B05931",
"c.	c #CB7045",
"d.	c #C66B46",
"e.	c #B25B35",
"f.	c #D87444",
"g.	c #8C4827",
"h.	c #547A79",
"i.	c #65BABE",
"j.	c #53A9AE",
"k.	c #5EAFB1",
"l.	c #6B98A1",
"m.	c #515E61",
"n.	c #995233",
"o.	c #B36240",
"p.	c #C5683A",
"q.	c #C46B43",
"r.	c #C86D47",
"s.	c #A15231",
"t.	c #DF7847",
"u.	c #CA6C44",
"v.	c #C06843",
"w.	c #CC7047",
"x.	c #C26A44",
"y.	c #B85D38",
"z.	c #DA7444",
"A.	c #A95D39",
"B.	c #584B4A",
"C.	c #6B9099",
"D.	c #57A9AD",
"E.	c #5AD0D1",
"F.	c #63C4C6",
"G.	c #6D4636",
"H.	c #B8633F",
"I.	c #B76241",
"J.	c #C56839",
"K.	c #C26C43",
"L.	c #C06B46",
"M.	c #A15232",
"N.	c #E37A46",
"O.	c #C96B45",
"P.	c #C56B47",
"Q.	c #B15931",
"R.	c #C36A44",
"S.	c #BA5F39",
"T.	c #DA7543",
"U.	c #B56440",
"V.	c #6F351A",
"W.	c #5FAFB2",
"X.	c #61D7DA",
"Y.	c #5AB5B9",
"Z.	c #68989C",
"`.	c #7B432B",
" +	c #BE643D",
".+	c #AC5B3A",
"++	c #B96137",
"@+	c #B5633F",
"#+	c #B26040",
"$+	c #9A4B2C",
"%+	c #D4733F",
"&+	c #B9633F",
"*+	c #BA6440",
"=+	c #A8532B",
"-+	c #C16940",
";+	c #B6623D",
">+	c #A95634",
",+	c #CC6C3E",
"'+	c #B05F3E",
")+	c #77371C",
"!+	c #638889",
"~+	c #62B8BA",
"{+	c #5CB5B7",
"]+	c #787E7D",
"^+	c #BF683B",
"/+	c #CA6D40",
"(+	c #C66D41",
"_+	c #CA6B3E",
":+	c #C96D3F",
"<+	c #C76E42",
"[+	c #C6693D",
"}+	c #CF6F40",
"|+	c #C86F42",
"1+	c #C96D41",
"2+	c #C76A3D",
"3+	c #CB6D40",
"4+	c #C66F44",
"5+	c #C5693E",
"6+	c #CB6E40",
"7+	c #C66E43",
"8+	c #C1673C",
"9+	c #846F66",
"0+	c #64B7BB",
"a+	c #5BCFD1",
"b+	c #7B8982",
"c+	c #D07142",
"d+	c #BA6947",
"e+	c #BA775B",
"f+	c #BD6542",
"g+	c #BB6944",
"h+	c #BB775A",
"i+	c #BD6543",
"j+	c #BC6542",
"k+	c #BA7356",
"l+	c #BD6A4A",
"m+	c #BE6643",
"n+	c #BC6743",
"o+	c #BC7A5F",
"p+	c #BB6641",
"q+	c #BB6645",
"r+	c #BA775C",
"s+	c #BC6846",
"t+	c #82685A",
"u+	c #63D7D7",
"v+	c #5EAEB1",
"w+	c #708786",
"x+	c #814627",
"y+	c #8B401F",
"z+	c #893F1C",
"A+	c #894020",
"B+	c #8A4120",
"C+	c #89401D",
"D+	c #883F1E",
"E+	c #8D4220",
"F+	c #89401F",
"G+	c #873F1E",
"H+	c #894220",
"I+	c #873F1D",
"J+	c #8D411E",
"K+	c #8A3F1E",
"L+	c #7F391A",
"M+	c #727677",
"N+	c #69B0B8",
"O+	c #58C6CB",
"P+	c #61B6BC",
"Q+	c #7A4630",
"R+	c #BD653E",
"S+	c #AD5C3B",
"T+	c #BD6237",
"U+	c #C36841",
"V+	c #B36340",
"W+	c #9A4D2E",
"X+	c #D67242",
"Y+	c #B5633E",
"Z+	c #BA633E",
"`+	c #AC562E",
" @	c #BF6A42",
".@	c #B26241",
"+@	c #A25534",
"@@	c #CC6E40",
"#@	c #BA643D",
"$@	c #783715",
"%@	c #60A3A5",
"&@	c #61CED0",
"*@	c #59BBC0",
"=@	c #64A4AA",
"-@	c #804930",
";@	c #C36B45",
">@	c #A86148",
",@	c #C5683B",
"'@	c #CE6F45",
")@	c #C16846",
"!@	c #A15131",
"~@	c #E47A48",
"{@	c #C66B47",
"]@	c #C66A46",
"^@	c #B65B32",
"/@	c #CD6F46",
"(@	c #BD6846",
"_@	c #A95939",
":@	c #DE7644",
"<@	c #CA6C46",
"[@	c #834021",
"}@	c #5D9497",
"|@	c #62C1C2",
"1@	c #5BB0B4",
"2@	c #658F99",
"3@	c #7E472E",
"4@	c #9E6448",
"5@	c #81746D",
"6@	c #BC6437",
"7@	c #CA6C45",
"8@	c #C56B48",
"9@	c #DF7A47",
"0@	c #C86B46",
"a@	c #B25A32",
"b@	c #CD7046",
"c@	c #C36B48",
"d@	c #A95938",
"e@	c #DF7644",
"f@	c #C56941",
"g@	c #854121",
"h@	c #5E8187",
"i@	c #62B2B7",
"j@	c #58D4D5",
"k@	c #63CACC",
"l@	c #814C35",
"m@	c #B46B47",
"n@	c #7F5D51",
"o@	c #C1683C",
"p@	c #C36A43",
"q@	c #C86E4A",
"r@	c #A55332",
"s@	c #DE7947",
"t@	c #C86B45",
"u@	c #C86B44",
"v@	c #CC7146",
"w@	c #C76C47",
"x@	c #C76B41",
"y@	c #853E18",
"z@	c #5FB4B3",
"A@	c #61DDDF",
"B@	c #60AFB3",
"C@	c #688E95",
"D@	c #80472C",
"E@	c #C06B42",
"F@	c #83513F",
"G@	c #C4693B",
"H@	c #C16944",
"I@	c #C56A46",
"J@	c #A95331",
"K@	c #DE7948",
"L@	c #C86B43",
"M@	c #B05A31",
"N@	c #C86D48",
"O@	c #DE7544",
"P@	c #C96D45",
"Q@	c #7F3F1F",
"R@	c #627F85",
"S@	c #67B0B7",
"T@	c #5DBDC0",
"U@	c #65A8AC",
"V@	c #BF6B42",
"W@	c #83503D",
"X@	c #C16945",
"Y@	c #C46A46",
"Z@	c #AB5632",
"`@	c #DE7848",
" #	c #C86A43",
".#	c #B15A31",
"+#	c #CF7147",
"@#	c #CA6D48",
"##	c #AB5B38",
"$#	c #D87542",
"%#	c #C66B44",
"&#	c #7F3D1E",
"*#	c #5F9697",
"=#	c #63C3C6",
"-#	c #57C6C8",
";#	c #61B4BA",
">#	c #7F4C33",
",#	c #A36547",
"'#	c #806C67",
")#	c #BF6537",
"!#	c #C16A45",
"~#	c #BF6946",
"{#	c #AC5433",
"]#	c #DF7848",
"^#	c #C56B43",
"/#	c #D47248",
"(#	c #D16F47",
"_#	c #B05D39",
":#	c #D87543",
"<#	c #C96A45",
"[#	c #853E1E",
"}#	c #5DA2A3",
"|#	c #5ECED2",
"1#	c #5EAEB3",
"2#	c #6A8D94",
"3#	c #7F472C",
"4#	c #AB6649",
"5#	c #8A6C64",
"6#	c #C06537",
"7#	c #BE6947",
"8#	c #AB5433",
"9#	c #DF7948",
"0#	c #BF6943",
"a#	c #C16943",
"b#	c #D67348",
"c#	c #CC6C46",
"d#	c #B15C39",
"e#	c #D87443",
"f#	c #7D3D1F",
"g#	c #627E85",
"h#	c #67B1B8",
"i#	c #5ACED1",
"j#	c #65C1C5",
"k#	c #814A33",
"l#	c #C86B42",
"m#	c #AE623F",
"n#	c #C3693A",
"o#	c #C06A44",
"p#	c #BE6948",
"q#	c #DF7849",
"r#	c #B96744",
"s#	c #B96843",
"t#	c #B35A32",
"u#	c #D87347",
"v#	c #C46A45",
"w#	c #B25C39",
"x#	c #D97443",
"y#	c #7B3A1B",
"z#	c #60ACAF",
"A#	c #62D6DA",
"B#	c #5BB5B7",
"C#	c #67959B",
"D#	c #7D432B",
"E#	c #BE673D",
"F#	c #AE5E3D",
"G#	c #BC6236",
"H#	c #BB6441",
"I#	c #B86441",
"J#	c #A2502E",
"K#	c #D47245",
"L#	c #B46240",
"M#	c #B26141",
"N#	c #AD552F",
"O#	c #D06D43",
"P#	c #BB6542",
"Q#	c #AF5937",
"R#	c #CD6F40",
"S#	c #B15F3F",
"T#	c #77391D",
"U#	c #638689",
"V#	c #5EB4B8",
"W#	c #758182",
"X#	c #BA6339",
"Y#	c #C8693D",
"Z#	c #C46B3E",
"`#	c #C5683C",
" $	c #C66A3C",
".$	c #C66C40",
"+$	c #C16539",
"@$	c #C96C3D",
"#$	c #C36C3F",
"$$	c #C4693D",
"%$	c #C36638",
"&$	c #CA6C3E",
"*$	c #C46C43",
"=$	c #C4673A",
"-$	c #C46B41",
";$	c #BB6438",
">$	c #847268",
",$	c #64B8BA",
"'$	c #3E9C4B",
")$	c #5CCED0",
"!$	c #7A877E",
"~$	c #D27445",
"{$	c #BF6B4A",
"]$	c #BD785B",
"^$	c #BE6845",
"/$	c #BD6A47",
"($	c #BD795A",
"_$	c #BE6945",
":$	c #BC7659",
"<$	c #BF6C4B",
"[$	c #C06945",
"}$	c #BF7A5E",
"|$	c #BE6944",
"1$	c #BD6A44",
"2$	c #BC795D",
"3$	c #BD6C48",
"4$	c #826557",
"5$	c #64D5D5",
"6$	c #5FAFB3",
"7$	c #738787",
"8$	c #844426",
"9$	c #89401E",
"0$	c #8C411F",
"a$	c #8A411F",
"b$	c #8B4120",
"c$	c #873E1D",
"d$	c #904320",
"e$	c #8A401F",
"f$	c #8C4221",
"g$	c #8B3F1D",
"h$	c #8D431F",
"i$	c #88401E",
"j$	c #7D3A19",
"k$	c #727773",
"l$	c #66B1B8",
"m$	c #59C8CA",
"n$	c #66B7BA",
"o$	c #76442D",
"p$	c #BF643B",
"q$	c #B25D3A",
"r$	c #B65E35",
"s$	c #B3613A",
"t$	c #B7633E",
"u$	c #954B29",
"v$	c #CB6D3E",
"w$	c #BA623D",
"x$	c #B5603B",
"y$	c #A4512B",
"z$	c #C3673D",
"A$	c #B7613D",
"B$	c #A75333",
"C$	c #C66A3F",
"D$	c #AC5D3D",
"E$	c #763514",
"F$	c #61A3A5",
"G$	c #63CED2",
"H$	c #5ABBBD",
"I$	c #62A4A8",
"J$	c #82472F",
"K$	c #CC6C43",
"L$	c #C26740",
"M$	c #C6683B",
"N$	c #C46B46",
"O$	c #C76C46",
"P$	c #A15130",
"Q$	c #E07948",
"R$	c #C76B44",
"S$	c #C76C45",
"T$	c #CD7145",
"U$	c #CC6C49",
"V$	c #B15B3A",
"W$	c #D77543",
"X$	c #B96543",
"Y$	c #7B3C1F",
"Z$	c #5D9195",
"`$	c #5FC0C3",
" %	c #61ADB1",
".%	c #698D98",
"+%	c #7E442A",
"@%	c #C86B40",
"#%	c #BE6640",
"$%	c #C76739",
"%%	c #C96E45",
"&%	c #BD6842",
"*%	c #9D512E",
"=%	c #E37947",
"-%	c #C56A43",
";%	c #B15930",
">%	c #CC6E44",
",%	c #A65835",
"'%	c #D57441",
")%	c #B76541",
"!%	c #783B1B",
"~%	c #637C86",
"{%	c #67AFB6",
"]%	c #7E9192",
"^%	c #7A8284",
"/%	c #837572",
"(%	c #AB7F72",
"_%	c #A87E72",
":%	c #A57E70",
"<%	c #AE8171",
"[%	c #AB8071",
"}%	c #987870",
"|%	c #B58271",
"1%	c #AE7F71",
"2%	c #AD8071",
"3%	c #9C7A72",
"4%	c #B08070",
"5%	c #AA7F71",
"6%	c #9C7B70",
"7%	c #B08272",
"8%	c #A97E72",
"9%	c #867570",
"0%	c #787E81",
"a%	c #778B8B",
"  . .   . . . . . . . + . @ # $ % & . . . . . . . . . . . .     ",
"  .     . . . . . . . * = - ; > , ' ) ! . . . . . . . . . . .   ",
". . . . . . . . . ~ { ] ^ / ( _ : < [ } | 1 . . . . . . . . . . ",
". . . . . .   . 2 3 4 5 6 7 8 9 0 a b c d e f . . . . . . . . . ",
". . . . . .   g h i j k l m n o p q r s t i u v . . . . . . . . ",
". . . . . . w x y z A B C D E F G H I J K L M N O . P P . . . . ",
". . . . . . Q R S T U V W X E Y Z `  ...+.@.#.$.%.P P . . . . . ",
". . . . . &.*.=.-.;.>.,.'.).!.~.{.].^./.(._.:.<.[.}.. . . . . . ",
". . . . . |.1.2.3.4.5.6.7.8.9.0.a.b.c.d.e.f.g.h.i.j.. . . . . . ",
". . . P . k.l.m.n.o.p.q.r.s.t.u.v.b.w.x.y.z.A.B.C.D.. . . . . . ",
". . . P . E.F.G.H.I.J.K.L.M.N.O.P.Q.w.R.S.T.U.V.W.X..   . . . . ",
". . . P . Y.Z.`. +.+++@+#+$+%+&+*+=+-+;+>+,+'+)+!+~+.   . . . . ",
". . . P . {+]+^+/+(+_+:+<+[+}+|+1+2+3+4+5+6+7+8+9+0+. . . . . . ",
". . . . . a+b+c+d+e+f+g+h+i+j+k+l+m+n+o+p+q+r+s+t+u+. . . . . . ",
". . . . . v+w+x+y+z+A+B+C+D+E+F+F+G+H+C+I+J+K+L+M+N+. . . . . . ",
". . . .   O+P+Q+R+S+T+U+V+W+X+Y+Z+`+ @.@+@@@#@$@%@&@. . .     . ",
". . . .   *@=@-@;@>@,@'@)@!@~@{@]@^@/@(@_@:@<@[@}@|@. . .   . . ",
". . . . . 1@2@3@4@5@6@7@8@!@9@0@O.a@b@c@d@e@f@g@h@i@. . .   . . ",
". . . . . j@k@l@m@n@o@p@q@r@s@t@u@Q.v@w@d@e@x@y@z@A@. . . . . . ",
". . . . . B@C@D@E@F@G@H@I@J@K@I@L@M@v@N@d@O@P@Q@R@S@. . . . . . ",
". . . . . T@U@-@V@W@G@X@Y@Z@`@W  #.#+#@###$#%#&#*#=#. . . . . . ",
". . . . . -#;#>#,#'#)#!#~#{#]#^#L@.#/#(#_#:#<#[#}#|#. .     . . ",
". . . . . 1#2#3#4#5#6#X@7#8#9#0#a#.#b#c#d#e#x.f#g#h#. . .       ",
". . . . . i#j#k#l#m#n#o#p#8#q#r#s#t#u#v#w#x#p+y#z#A#. . . . .   ",
"    . . . B#C#D#E#F#G#H#I#J#K#L#M#N#O#P#Q#R#S#T#U#0+. . . . . . ",
".   . . . V#W#X#Y#Z#`# $.$+$@$#$$$%$&$*$=$@$-$;$>$,$'$. . . . . ",
". . . . . )$!$~${$]$^$/$($^$_$:$<$[$_$}$|$1$2$3$4$5$'$. . . . . ",
". . . . '$6$7$8$E+9$0$a$b$c$d$b$e$K+f$0$g$h$i$j$k$l$'$. . . . . ",
". . . . '$m$n$o$p$q$r$s$t$u$v$w$x$y$z$A$B$C$D$E$F$G$'$. . . . . ",
"  . . . . H$I$J$K$L$M$N$O$P$Q$R$S$` T$U$V$W$X$Y$Z$`$P . . . . . ",
"  . . . .  %.%+%@%#%$%%%&%*%=%-%L@;%>%v.,%'%)%!%~%{%. . . . . . ",
"  . .   . ]%^%/%(%_%:%<%[%}%|%1%2%3%4%5%6%7%8%9%0%a%. . . . . . "};
